<?xml version="1.0" encoding="UTF-8" standalone="no"?>
<!DOCTYPE svg PUBLIC "-//W3C//DTD SVG 1.1//EN" "http://www.w3.org/Graphics/SVG/1.1/DTD/svg11.dtd">
<svg width="100%" height="100%" viewBox="0 0 1000 1000" version="1.1" xmlns="http://www.w3.org/2000/svg" xmlns:xlink="http://www.w3.org/1999/xlink" xml:space="preserve" xmlns:serif="http://www.serif.com/" style="fill-rule:evenodd;clip-rule:evenodd;stroke-linecap:round;stroke-linejoin:round;stroke-miterlimit:1.5;">
    <g id="Gouvernail">
    </g>
    <g id="Bateau">
        <path d="M154.659,230.338L349.056,791.353C349.056,791.353 829.687,792.907 910.654,791.41C991.622,789.913 969.211,692.081 913.615,697.253C858.019,698.546 416.268,696.822 416.268,696.822L222.329,137.415C222.329,137.415 105.965,135.894 62.868,136.122C19.77,136.35 0.807,216.081 58.558,229.01C115.878,230.303 154.659,230.338 154.659,230.338Z" style="stroke:black;stroke-width:3.39px;"/>
        <circle id="gauche" cx="451.348" cy="907.834" r="80.135" style="stroke:black;stroke-width:3.39px;"/>
        <circle id="droite" cx="806.23" cy="907.834" r="80.135" style="stroke:black;stroke-width:3.39px;"/>
        <path d="M382.902,340.693L937.784,340.693L859.67,613.824L476.167,615.979L382.902,340.693Z" style="stroke:black;stroke-width:68.31px;"/>
        <path d="M424.855,103.594C424.914,103.443 424.935,103.279 424.995,103.128C425.187,102.642 426.249,101.838 427.279,102.708C434.432,108.753 443.028,116.871 444.367,118.135C482.087,153.757 506.402,187.11 512.95,196.08C536.161,227.876 549.544,252.675 552.92,258.862C556.948,266.242 563.33,278.071 572.204,298.255C572.407,298.719 575.628,306.445 577.321,310.872C579.468,316.488 584.713,330.176 590.99,352.168C593.494,360.942 596.032,371.913 596.431,373.64C608.782,427.045 609.878,469.481 609.544,497.219C609.438,505.946 609.148,513.008 608.562,523.474C608.554,523.604 608.484,524.854 608.431,525.093C608.155,526.34 606.715,528.046 604.362,527.258C604.342,527.252 597.957,523.993 586.414,527.874C579.133,530.322 572.392,535.389 571.999,538.837C571.971,539.085 572.188,540.595 571.028,541.683C570.128,542.527 568.245,543.054 566.714,541.573C565.601,540.497 561.082,535.843 560.595,535.342C555.279,529.867 539.536,513.334 523.265,492.302C500.105,462.363 481.972,431.735 467.584,402.21C466.477,399.938 459.143,384.447 453.429,369.862C448.699,357.79 445.093,347.608 440.194,330.561C440.119,330.3 436.543,318.414 432.248,298.811C431.694,296.284 422.273,254.716 419.942,205.653C417.395,152.003 423.008,115.317 424.855,103.594ZM427.487,107.021C426.212,123.693 424.101,161.305 431.439,214.845C433.241,227.988 436.851,255.26 448.04,296.898C448.643,299.142 451.318,309.096 456.191,324.778C456.779,326.673 458.866,333.39 463.975,348.324C472.899,374.409 479.617,390.334 481.132,393.925C488.018,410.247 508.014,458.744 548.228,510.498C550.195,513.029 554.347,518.186 559.006,523.662C562.609,527.896 565.679,531.343 567.749,533.63C569.15,531.534 571.568,529.06 575.732,526.534C580.677,523.533 591.895,518.616 602.541,520.529C603.034,497.021 601.55,477.162 599.621,460.466C593.714,409.329 581.065,370.755 574.018,350.27C569.262,336.444 563.632,321.961 554.287,299.738C553.396,297.618 549.501,288.355 542.533,273.501C539.997,268.094 528.922,244.699 513.475,218.817C512.598,217.348 495.757,188.528 470.866,156.499C451.566,131.665 435.11,114.698 427.487,107.021Z"/>
        <path d="M585.196,526.833C584.653,527.037 584.624,527.028 584.098,526.784C583.759,526.627 583.531,526.285 583.324,525.975C583.242,525.852 529.618,392.21 503.827,323.63C490.991,289.498 474.396,243.433 471.879,236.444C455.413,190.735 424.929,104.358 424.933,104.273C424.95,103.905 424.834,103.504 424.987,103.169C424.994,103.153 425.784,102.411 425.793,102.411C426.156,102.424 426.551,102.307 426.881,102.457C427.216,102.61 427.446,102.945 427.648,103.253C427.736,103.387 461.635,188.427 479.322,233.648C482.028,240.566 499.862,286.166 512.67,320.309C538.411,388.926 586.042,524.873 586.039,524.955C586.024,525.328 586.141,525.732 585.989,526.073C585.753,526.603 585.738,526.629 585.196,526.833Z"/>
        <path d="M828.737,257.031C828.737,257.031 909.965,287.266 909.9,287.441" style="fill:none;stroke:black;stroke-width:10.11px;"/>
        <path d="M849.374,226.016L916.346,251.134" style="fill:none;stroke:black;stroke-width:10.11px;"/>
        <g>
            <path d="M921.296,340.207C921.296,340.207 866.717,320.211 861.327,313.461" style="fill:none;stroke:black;stroke-width:10.11px;"/>
            <path d="M956.28,136.099C956.28,136.099 967.937,237.821 914.476,356.036" style="fill:none;stroke:black;stroke-width:10.11px;"/>
            <path d="M850.39,305.171L815.375,277.114L898.118,152.759L953.38,143.838" style="fill:none;stroke:black;stroke-width:10.11px;"/>
        </g>
        <path d="M869.289,196.086L914.342,214.886" style="fill:none;stroke:black;stroke-width:10.11px;"/>
        <path d="M889.07,166.357C903.446,173.361 911.101,175.743 911.101,175.743" style="fill:none;stroke:black;stroke-width:10.11px;"/>
        <path d="M665.731,279.501L579.119,514.121" style="fill:none;stroke:black;stroke-width:7.92px;"/>
        <path d="M689.844,143.41C689.844,143.41 673.066,184.77 664.966,207.53C652.582,242.327 665.731,279.501 665.731,279.501C665.731,279.501 695.552,278.915 716.644,226.997C731.568,190.262 737.236,171.212 741.568,158.911C734.013,134.918 700.578,130.026 689.844,143.41" style="stroke:black;stroke-width:3.61px;"/>
    </g>
</svg>
