<?xml version="1.0" encoding="UTF-8" standalone="no"?>
<!DOCTYPE svg PUBLIC "-//W3C//DTD SVG 1.1//EN" "http://www.w3.org/Graphics/SVG/1.1/DTD/svg11.dtd">
<svg  viewBox="0 0 1000 1000" version="1.1" xmlns="http://www.w3.org/2000/svg" xmlns:xlink="http://www.w3.org/1999/xlink" xml:space="preserve" xmlns:serif="http://www.serif.com/" style="fill-rule:evenodd;clip-rule:evenodd;stroke-linecap:round;stroke-linejoin:round;stroke-miterlimit:1.5;">
<g id="Gouvernail">
    <path d="M473.289,163.826l56.222,0.429l-0.429,-19.17c-0,0 0.143,-8.297 -7.296,-8.011c-7.439,0.286 -9.728,-0.429 -9.728,-0.429c-0,-0 7.105,-64.257 5.865,-76.536c-1.164,-11.532 -25.75,-17.74 -33.046,-1.431c0.715,32.474 5.722,78.11 5.722,78.11l-10.157,0.572c-0,0 -7.153,-0.858 -7.296,8.584c-0.143,9.442 0.143,17.882 0.143,17.882Z" style="fill:#000080;stroke:#000080;stroke-width:29.81px;"/>
    <path d="M719.4,243.612l40.04,39.471l13.045,-14.053c0,-0 5.882,-5.854 0.346,-10.83c-5.537,-4.977 -6.681,-7.085 -6.681,-7.085c-0,0 49.858,-41.154 57.521,-50.828c7.197,-9.084 -6.119,-30.664 -22.714,-24.045c-22.107,23.798 -50.303,60.028 -50.303,60.028l-7.686,-6.664c-0,-0 -4.534,-5.599 -11.214,1.076c-6.68,6.675 -12.354,12.93 -12.354,12.93Z" style="fill:#000080;stroke:#000080;stroke-width:29.81px;"/>
    <path d="M838.657,470.682l-0.429,56.222l19.17,-0.429c-0,0 8.297,0.143 8.011,-7.296c-0.286,-7.439 0.429,-9.728 0.429,-9.728c0,0 64.257,7.105 76.536,5.865c11.532,-1.164 17.74,-25.75 1.431,-33.046c-32.474,0.715 -78.11,5.722 -78.11,5.722l-0.572,-10.157c-0,0 0.858,-7.153 -8.584,-7.296c-9.442,-0.143 -17.882,0.143 -17.882,0.143Z" style="fill:#000080;stroke:#000080;stroke-width:29.81px;"/>
    <path d="M758.871,716.794l-39.471,40.039l14.053,13.045c0,0 5.854,5.883 10.83,0.346c4.977,-5.537 7.085,-6.681 7.085,-6.681c-0,0 41.154,49.858 50.828,57.522c9.084,7.197 30.664,-6.119 24.045,-22.714c-23.798,-22.108 -60.028,-50.304 -60.028,-50.304l6.664,-7.686c0,0 5.599,-4.534 -1.076,-11.214c-6.675,-6.679 -12.93,-12.353 -12.93,-12.353Z" style="fill:#000080;stroke:#000080;stroke-width:29.81px;"/>
    <path d="M529.328,836.05l-56.222,-0.429l0.429,19.17c-0,0 -0.143,8.297 7.296,8.011c7.439,-0.286 9.728,0.429 9.728,0.429c-0,0 -7.105,64.257 -5.865,76.537c1.164,11.531 25.75,17.739 33.046,1.43c-0.715,-32.474 -5.722,-78.11 -5.722,-78.11l10.157,-0.572c-0,0 7.153,0.859 7.296,-8.583c0.143,-9.442 -0.143,-17.883 -0.143,-17.883Z" style="fill:#000080;stroke:#000080;stroke-width:29.81px;"/>
    <path d="M283.216,756.264l-40.039,-39.47l-13.045,14.053c-0,-0 -5.883,5.853 -0.346,10.83c5.537,4.976 6.681,7.084 6.681,7.084c-0,-0 -49.858,41.154 -57.522,50.828c-7.197,9.085 6.119,30.665 22.714,24.046c22.108,-23.798 50.304,-60.029 50.304,-60.029l7.686,6.665c-0,-0 4.534,5.598 11.214,-1.077c6.679,-6.675 12.353,-12.93 12.353,-12.93Z" style="fill:#000080;stroke:#000080;stroke-width:29.81px;"/>
    <path d="M163.96,526.721l0.429,-56.222l-19.17,0.429c-0,0 -8.297,-0.143 -8.011,7.296c0.286,7.439 -0.429,9.728 -0.429,9.728c-0,0 -64.257,-7.105 -76.537,-5.865c-11.531,1.164 -17.739,25.75 -1.43,33.046c32.474,-0.715 78.11,-5.722 78.11,-5.722l0.572,10.157c-0,0 -0.859,7.153 8.583,7.296c9.442,0.143 17.883,-0.143 17.883,-0.143Z" style="fill:#000080;stroke:#000080;stroke-width:29.81px;"/>
    <path d="M243.746,280.61l39.47,-40.04l-14.053,-13.045c0,-0 -5.853,-5.882 -10.83,-0.346c-4.976,5.537 -7.084,6.681 -7.084,6.681c0,0 -41.154,-49.858 -50.828,-57.521c-9.085,-7.197 -30.665,6.119 -24.046,22.714c23.798,22.107 60.029,50.303 60.029,50.303l-6.665,7.686c0,0 -5.598,4.534 1.077,11.214c6.675,6.68 12.93,12.354 12.93,12.354Z" style="fill:#000080;stroke:#000080;stroke-width:29.81px;"/>
    <path d="M501.321,205.827c164.74,-1.684 297.279,131.733 293.913,293.913c-3.367,162.215 -135.065,296.438 -293.913,293.913c-162.194,-2.579 -287.963,-131.807 -293.913,-293.913c-5.892,-160.532 131.707,-292.256 293.913,-293.913Z" style="fill:none;stroke:#000080;stroke-width:65.02px;"/>
</g>
<g id="Bateau">
    <path id="coque" d="M341.042,533.209c84.588,-66.722 266.354,-53.038 318.171,-0.256c5.188,89.839 -106.17,198.331 -159.199,198.374c-53.028,0.043 -158.33,-98.355 -158.972,-198.118Zm254.637,-9.983c1.976,0.575 3.919,1.123 5.83,1.638c-0.627,-0.556 -2.65,-1.107 -5.83,-1.638Zm-0,-0c-43.65,-12.7 -103.535,-38.383 -197.181,2.116c37.604,-10.316 167.567,-7.063 197.181,-2.116Zm-95.464,61.783c-6.417,6.089 -4.946,79.139 0,89.675c8.652,-39.366 0,-89.675 0,-89.675Z" style="fill:#000080;"/>
    <path id="Mats" d="M491.794,347.465c-0.075,29.073 -0,150.949 -0,150.949l17.91,0c0,0 -0.586,-122.179 -0.744,-150.928c1.981,-3.237 9.179,-21.836 -8.946,-22.051c-17.454,-0.207 -11.843,20.587 -8.22,22.03Z" style="fill:#000080;"/>
    <path id="Voile" d="M333.353,457.011c0,0 15.974,-19.717 31.757,-58.434c15.47,-3.1 10.066,7.673 5.809,-12.145c6.897,-6.185 13.807,5.615 3.582,-10.934c22.856,-5.63 53.133,24.224 4.801,-16.784c13.365,-7.428 19.015,5.179 3.415,-13.763c0.625,-2.687 1.236,-5.419 1.832,-8.191c9.922,-2.415 16.877,11.094 2.299,-11.326c18.088,1.477 22.251,11.14 2.044,-11.368c44.021,6.323 62.7,21.275 2.198,-14.303c38.843,-5.475 67.353,17.839 2.332,-19.609c0.435,-4.427 0.811,-8.884 1.12,-13.359c61.17,-0.088 72.422,-8.149 105.673,-21.076c48.074,20.733 67.198,18.385 104.954,19.479c13.918,137.861 61.935,192.555 61.935,192.555c-83.087,-51.55 -222.583,-53.114 -333.751,-0.742" style="fill:#000080;"/>
</g>
</svg>