<?xml version="1.0" encoding="UTF-8"?>
<svg id="Calque_1" data-name="Calque 1" xmlns="http://www.w3.org/2000/svg" viewBox="0 0 760.11 330.15">
  <defs>
    <style>
      .cls-1 {
        fill: #94368a;
      }

      .cls-1, .cls-2 {
        stroke-width: 0px;
      }

      .cls-2 {
        fill: #002d74;
      }
    </style>
  </defs>
  <g>
    <path class="cls-1" d="M247.35,6.77h29.71l60.84,131.58L398.74,6.77h29.71v178.27h-33.96v-99.04l-45.27,99.04h-22.64l-45.27-99.04v99.04h-33.96V6.77Z"/>
    <path class="cls-1" d="M479.1,6.77h29.71l60.84,131.58L630.48,6.77h29.71v178.27h-33.96v-99.04l-45.27,99.04h-22.64l-45.27-99.04v99.04h-33.96V6.77Z"/>
    <path class="cls-1" d="M710.84,6.77h33.96v178.27h-33.96V6.77Z"/>
  </g>
  <g>
    <path class="cls-1" d="M188.13,149.8h-74.02s3.73-4.96,12.41-15.21c8.69-10.24,21.41-20.48,42.2-20.48h19.41v35.69Z"/>
    <path class="cls-2" d="M7.52,149.8h106.58s-3.72,4.96-12.41,15.21c-8.69,10.24-21.42,20.48-42.21,20.48H7.52v-35.69Z"/>
    <path class="cls-1" d="M188.13,96.27h-90.3s3.72-4.96,12.41-15.21c8.69-10.24,21.41-20.48,42.2-20.48h35.69v35.69Z"/>
    <path class="cls-2" d="M7.52,96.27h90.3s-3.72,4.96-12.41,15.21c-8.69,10.24-21.41,20.48-42.2,20.48H7.52v-35.69Z"/>
    <path class="cls-1" d="M188.13,42.74h-106.58s3.72-4.96,12.41-15.21c8.69-10.24,21.42-20.48,42.21-20.48h51.97v35.69Z"/>
    <path class="cls-2" d="M7.52,42.74h74.02s-3.73,4.96-12.41,15.21c-8.69,10.24-21.41,20.48-42.2,20.48H7.52v-35.69Z"/>
  </g>
  <g>
    <g>
      <path class="cls-2" d="M10.54,245.13h8.86v52.99h-8.86v-52.99Z"/>
      <path class="cls-2" d="M19.74,298.47h-9.55v-53.67h9.55v53.67ZM10.89,297.78h8.17v-52.3h-8.17v52.3Z"/>
    </g>
    <g>
      <path class="cls-2" d="M43.7,276.17v-31.04h8.78v30.88c0,9.16,5.45,14.99,13.93,14.99s13.93-5.83,13.93-14.99v-30.88h8.78v31.04c0,14.16-8.78,23.01-22.71,23.01s-22.71-8.86-22.71-23.01Z"/>
      <path class="cls-2" d="M66.41,299.52c-14.22,0-23.05-8.95-23.05-23.35v-31.38h9.47v31.23c0,8.89,5.33,14.64,13.58,14.64s13.58-5.75,13.58-14.64v-31.23h9.47v31.38c0,14.41-8.83,23.35-23.05,23.35ZM44.05,245.48v30.69c0,13.98,8.57,22.67,22.36,22.67s22.36-8.68,22.36-22.67v-30.69h-8.09v30.54c0,9.31-5.6,15.33-14.27,15.33s-14.28-6.02-14.28-15.33v-30.54h-8.09Z"/>
    </g>
    <g>
      <path class="cls-2" d="M151.52,253.31h-17.18v44.81h-8.86v-44.81h-17.18v-8.18h43.22v8.18Z"/>
      <path class="cls-2" d="M134.68,298.47h-9.55v-44.81h-17.18v-8.86h43.91v8.86h-17.18v44.81ZM125.83,297.78h8.17v-44.81h17.18v-7.49h-42.53v7.49h17.18v44.81Z"/>
    </g>
    <g>
      <path class="cls-2" d="M248.62,271.63c0,15.9-10.75,26.49-26.72,26.49h-20.29v-52.99h20.29c15.97,0,26.72,10.6,26.72,26.49ZM239.68,271.63c0-10.9-7.27-18.32-17.79-18.32h-11.43v36.64h11.43c10.6,0,17.79-7.42,17.79-18.32Z"/>
      <path class="cls-2" d="M221.9,298.47h-20.63v-53.67h20.63c16.19,0,27.07,10.79,27.07,26.84s-10.88,26.84-27.07,26.84ZM201.95,297.78h19.94c15.78,0,26.37-10.51,26.37-26.15s-10.6-26.15-26.37-26.15h-19.94v52.3ZM221.9,290.29h-11.77v-37.32h11.77c10.68,0,18.13,7.67,18.13,18.66s-7.29,18.66-18.13,18.66ZM210.81,289.6h11.08c10.43,0,17.44-7.22,17.44-17.97s-7.01-17.98-17.44-17.98h-11.08v35.95Z"/>
    </g>
    <g>
      <path class="cls-2" d="M308.06,290.02v8.1h-39.44v-52.99h38.98v8.02h-30.2v14.16h28.92v7.87h-28.92v14.84h30.66Z"/>
      <path class="cls-2" d="M308.41,298.47h-40.13v-53.67h39.68v8.71h-30.2v13.47h28.91v8.56h-28.91v14.15h30.65v8.79ZM268.97,297.78h38.75v-7.41h-30.65v-15.52h28.91v-7.18h-28.91v-14.84h30.2v-7.34h-38.29v52.3Z"/>
    </g>
    <g>
      <path class="cls-2" d="M400.24,253.31h-17.18v44.81h-8.86v-44.81h-17.18v-8.18h43.22v8.18Z"/>
      <path class="cls-2" d="M383.4,298.47h-9.55v-44.81h-17.18v-8.86h43.91v8.86h-17.18v44.81ZM374.55,297.78h8.17v-44.81h17.18v-7.49h-42.53v7.49h17.18v44.81Z"/>
    </g>
    <g>
      <path class="cls-2" d="M417.49,271.63c0-16.5,10.98-27.63,27.32-27.63s27.25,11.13,27.25,27.63-10.98,27.63-27.25,27.63-27.32-11.13-27.32-27.63ZM463.13,271.63c0-11.58-7.42-19.45-18.32-19.45s-18.39,7.87-18.39,19.45,7.42,19.45,18.39,19.45,18.32-7.87,18.32-19.45Z"/>
      <path class="cls-2" d="M444.81,299.6c-16.55,0-27.67-11.24-27.67-27.97s11.12-27.97,27.67-27.97,27.6,11.24,27.6,27.97-11.09,27.97-27.6,27.97ZM444.81,244.34c-16.14,0-26.98,10.97-26.98,27.28s10.84,27.28,26.98,27.28,26.91-10.97,26.91-27.28-10.81-27.28-26.91-27.28ZM444.81,291.42c-11.21,0-18.74-7.95-18.74-19.79s7.53-19.8,18.74-19.8,18.66,7.95,18.66,19.8-7.5,19.79-18.66,19.79ZM444.81,252.52c-10.79,0-18.05,7.68-18.05,19.11s7.25,19.11,18.05,19.11,17.97-7.68,17.97-19.11-7.22-19.11-17.97-19.11Z"/>
    </g>
    <g>
      <path class="cls-2" d="M495.14,276.17v-31.04h8.78v30.88c0,9.16,5.45,14.99,13.93,14.99s13.93-5.83,13.93-14.99v-30.88h8.78v31.04c0,14.16-8.78,23.01-22.71,23.01s-22.71-8.86-22.71-23.01Z"/>
      <path class="cls-2" d="M517.84,299.52c-14.22,0-23.05-8.95-23.05-23.35v-31.38h9.47v31.23c0,8.89,5.33,14.64,13.58,14.64s13.58-5.75,13.58-14.64v-31.23h9.47v31.38c0,14.41-8.83,23.35-23.05,23.35ZM495.48,245.48v30.69c0,13.98,8.57,22.67,22.36,22.67s22.36-8.68,22.36-22.67v-30.69h-8.09v30.54c0,9.31-5.6,15.33-14.27,15.33s-14.28-6.02-14.28-15.33v-30.54h-8.09Z"/>
    </g>
    <g>
      <path class="cls-2" d="M566.8,245.13h8.86v44.74h27.93v8.25h-36.79v-52.99Z"/>
      <path class="cls-2" d="M603.94,298.47h-37.48v-53.67h9.55v44.73h27.93v8.94ZM567.15,297.78h36.1v-7.57h-27.93v-44.73h-8.17v52.3Z"/>
    </g>
    <g>
      <path class="cls-2" d="M620.99,271.63c0-16.5,10.98-27.63,27.32-27.63s27.25,11.13,27.25,27.63-10.98,27.63-27.25,27.63-27.32-11.13-27.32-27.63ZM666.63,271.63c0-11.58-7.42-19.45-18.32-19.45s-18.39,7.87-18.39,19.45,7.42,19.45,18.39,19.45,18.32-7.87,18.32-19.45Z"/>
      <path class="cls-2" d="M648.32,299.6c-16.55,0-27.67-11.24-27.67-27.97s11.12-27.97,27.67-27.97,27.6,11.24,27.6,27.97-11.09,27.97-27.6,27.97ZM648.32,244.34c-16.14,0-26.98,10.97-26.98,27.28s10.84,27.28,26.98,27.28,26.91-10.97,26.91-27.28-10.81-27.28-26.91-27.28ZM648.32,291.42c-11.21,0-18.74-7.95-18.74-19.79s7.53-19.8,18.74-19.8,18.66,7.95,18.66,19.8-7.5,19.79-18.66,19.79ZM648.32,252.52c-10.8,0-18.05,7.68-18.05,19.11s7.25,19.11,18.05,19.11,17.97-7.68,17.97-19.11-7.22-19.11-17.97-19.11Z"/>
    </g>
    <g>
      <path class="cls-2" d="M744.74,245.13v52.99h-8.02l-28.61-37.85.08,16.88v20.97h-8.86v-52.99h8.02l28.61,37.85-.08-15.82v-22.03h8.86Z"/>
      <path class="cls-2" d="M745.08,298.47h-8.54l-.1-.14-27.99-37.02.07,15.84v21.31h-9.55v-53.67h8.54l.1.14,27.99,37.02-.07-14.78v-22.37h9.55v53.67ZM736.88,297.78h7.51v-52.3h-8.17v21.68l.08,16.85-29.13-38.54h-7.51v52.3h8.17v-20.63l-.08-17.91,29.13,38.54Z"/>
    </g>
  </g>
</svg>